<?xml version="1.0" encoding="UTF-8" standalone="no"?>
<svg
   xmlns:dc="http://purl.org/dc/elements/1.1/"
   xmlns:cc="http://creativecommons.org/ns#"
   xmlns:rdf="http://www.w3.org/1999/02/22-rdf-syntax-ns#"
   xmlns:svg="http://www.w3.org/2000/svg"
   xmlns="http://www.w3.org/2000/svg"
   xmlns:sodipodi="http://sodipodi.sourceforge.net/DTD/sodipodi-0.dtd"
   xmlns:inkscape="http://www.inkscape.org/namespaces/inkscape"
   version="1.1"
   id="Capa_1"
   x="0px"
   y="0px"
   width="60"
   height="60"
   viewBox="5 -10 60 81"
   enable-background="new 0 0 100 100"
   xml:space="preserve"
   inkscape:version="0.48.5 r10040"
   sodipodi:docname="mark.svg"><metadata
     id="metadata13"><rdf:RDF><cc:Work
         rdf:about=""><dc:format>image/svg+xml</dc:format><dc:type
           rdf:resource="http://purl.org/dc/dcmitype/StillImage" /><dc:title></dc:title></cc:Work></rdf:RDF></metadata><defs
     id="defs11" /><sodipodi:namedview
     pagecolor="#ffffff"
     bordercolor="#666666"
     borderopacity="1"
     objecttolerance="10"
     gridtolerance="10"
     guidetolerance="10"
     inkscape:pageopacity="0"
     inkscape:pageshadow="2"
     inkscape:window-width="950"
     inkscape:window-height="819"
     id="namedview9"
     showgrid="false"
     inkscape:zoom="2.36"
     inkscape:cx="50"
     inkscape:cy="66.949153"
     inkscape:window-x="173"
     inkscape:window-y="63"
     inkscape:window-maximized="0"
     inkscape:current-layer="Capa_1" /><path
     style="fill:#ff0000;fill-rule:evenodd;stroke:#000000;stroke-width:1.22997761px;stroke-linecap:butt;stroke-linejoin:miter;stroke-opacity:1"
     d="M 30 1.625 C 14.323391 1.625 1.625 14.323391 1.625 30 C 1.625 45.676609 14.323391 58.375 30 58.375 C 45.676609 58.375 58.375 45.676609 58.375 30 C 58.375 14.323391 45.676609 1.625 30 1.625 z M 29.375 7.09375 C 29.582736 7.0737049 29.786769 7.09375 30 7.09375 C 33.411701 7.09375 36.1875 9.7053004 36.1875 12.9375 L 34.71875 33.71875 L 34.6875 33.71875 C 34.671789 33.890433 34.660615 34.053018 34.625 34.21875 C 34.182954 36.265049 32.290878 37.8125 30 37.8125 C 27.522667 37.8125 25.524095 36.013148 25.3125 33.71875 L 25.28125 33.71875 L 23.8125 12.9375 C 23.8125 9.9073128 26.258964 7.394426 29.375 7.09375 z M 30 41.53125 C 33.322664 41.53125 36 44.0709 36 47.21875 C 36 50.366597 33.322664 52.90625 30 52.90625 C 26.677335 52.90625 24 50.366597 24 47.21875 C 24 44.0709 26.677335 41.53125 30 41.53125 z "
     transform="matrix(1.35,0,0,1.35,-5.5,-10)"
     id="path3019" /></svg>