<?xml version="1.0" encoding="UTF-8" standalone="no"?>
<svg
   xmlns:dc="http://purl.org/dc/elements/1.1/"
   xmlns:cc="http://creativecommons.org/ns#"
   xmlns:rdf="http://www.w3.org/1999/02/22-rdf-syntax-ns#"
   xmlns:svg="http://www.w3.org/2000/svg"
   xmlns="http://www.w3.org/2000/svg"
   xmlns:sodipodi="http://sodipodi.sourceforge.net/DTD/sodipodi-0.dtd"
   xmlns:inkscape="http://www.inkscape.org/namespaces/inkscape"
   version="1.1"
   id="Capa_1"
   x="0px"
   y="0px"
   width="68"
   height="62"
   viewBox="5 -10 68 83.7"
   enable-background="new 0 0 100 100"
   xml:space="preserve"
   inkscape:version="0.48.5 r10040"
   sodipodi:docname="noun_32255_cc.svg"><metadata
     id="metadata13"><rdf:RDF><cc:Work
         rdf:about=""><dc:format>image/svg+xml</dc:format><dc:type
           rdf:resource="http://purl.org/dc/dcmitype/StillImage" /></cc:Work></rdf:RDF></metadata><defs
     id="defs11" /><sodipodi:namedview
     pagecolor="#ffffff"
     bordercolor="#666666"
     borderopacity="1"
     objecttolerance="10"
     gridtolerance="10"
     guidetolerance="10"
     inkscape:pageopacity="0"
     inkscape:pageshadow="2"
     inkscape:window-width="783"
     inkscape:window-height="489"
     id="namedview9"
     showgrid="false"
     inkscape:zoom="2.36"
     inkscape:cx="50"
     inkscape:cy="50"
     inkscape:window-x="173"
     inkscape:window-y="63"
     inkscape:window-maximized="0"
     inkscape:current-layer="Capa_1" /><path
     d="M 69.965897,72.35 H 8.9358978 c -6.145,0 -10.779,-2.168 -13.052,-6.103 -2.2729999,-3.938 -1.8319999,-9.036 1.24,-14.356 L 27.638897,-0.96 c 3.07,-5.321 7.266,-8.251 11.811,-8.251 4.545,0 8.741,2.93 11.811,8.251 l 30.515,52.851 c 3.072,5.32 3.513,10.418 1.24,14.356 -2.272,3.935 -6.906,6.103 -13.05,6.103 z m -24.288,-18.601 c 0,-3.172 -2.572,-5.744 -5.744,-5.744 -3.172,0 -5.744,2.572 -5.744,5.744 0,3.172 2.572,5.744 5.744,5.744 3.172,0 5.744,-2.572 5.744,-5.744 z m 0.155,-34.567 c 0,-3.257 -2.641,-5.898 -5.898,-5.898 -3.257,0 -5.898,2.641 -5.898,5.898 l 1.393,20.932 h 0.019 c 0.202,2.312 2.121,4.132 4.486,4.132 2.187,0 4.012,-1.551 4.434,-3.613 0.034,-0.167 0.037,-0.345 0.052,-0.518 h 0.04 l 1.372,-20.933 z"
     id="path3"
     inkscape:connector-curvature="0" /></svg>